<svg xmlns="http://www.w3.org/2000/svg" width="1.292in" height="1.292in">
    <path fill="#FFF" fill-rule="evenodd" stroke="#DDD" stroke-width="2" d="M46 1c24.853 0 45 20.147 45 45S70.853 91 46 91 1 70.853 1 46 21.147 1 46 1z"/>
    <path fill="#C0301C" fill-rule="evenodd" d="M36.599 58.724a.93.93 0 0 0 0-1.333L25.254 46l11.345-11.392a.93.93 0 0 0 0-1.333l-1.444-1.449a.921.921 0 0 0-1.328 0L20.375 45.333a.93.93 0 0 0 0 1.333l13.452 13.508a.923.923 0 0 0 1.328 0l1.444-1.45zm17.06-30.927a.94.94 0 0 0-.635-1.159l-1.79-.494c-.462-.145-.981.145-1.126.638L39.341 64.203a.94.94 0 0 0 .635 1.159l1.79.492c.462.146.981-.144 1.126-.637l10.767-37.42zm18.966 18.869a.93.93 0 0 0 0-1.333L59.173 31.826a.921.921 0 0 0-1.328 0l-1.444 1.449a.93.93 0 0 0 0 1.333L67.746 46 56.401 57.391a.93.93 0 0 0 0 1.333l1.444 1.45a.923.923 0 0 0 1.328 0l13.452-13.508z"/>
</svg>
