<svg xmlns="http://www.w3.org/2000/svg" width="57.312" height="53.376">
    <path fill="#FFF" fill-rule="evenodd" d="M18.735 11.223c1.835 3.776 3.411 7.813 4.755 11.771-.491.026-.982.052-1.473.052-2.559 0-5.117-.078-7.675-.104l4.393-11.719zM0 40c1.628 0 3.23-.079 4.858-.365.362-.052.879-.208 1.24-.208 2.998 0 6.022.52 9.019.52.026-.234.052-.468.052-.703 0-.52 0-1.015-.026-1.51-1.473-.208-5.272-.287-5.272-2.292 0-.99 2.61-7.812 3.282-9.323l11.629.053c.413 1.067 3.747 8.802 3.747 9.739 0 .964-1.37 1.146-2.067 1.302l-3.386.729a17.946 17.946 0 0 0-.103 2.032c3.385-.105 6.77-.391 10.156-.391 3.281 0 6.563.417 9.845.417 0-.235.026-.443.026-.678 0-.494-.078-.989-.155-1.484-1.215-.469-3.592-.625-4.445-1.302-.362-.286-.723-1.068-.904-1.484-1.292-2.656-2.197-5.443-3.36-8.151-1.964-4.584-3.747-9.245-5.685-13.855L23.154.547c-.078-.183-.181-.365-.284-.548h-3.308l-7.236 18.855-6.124 16.041c-1.085 2.813-3.721 2.292-6.15 3.047L0 40z"/>
</svg>
