<svg xmlns="http://www.w3.org/2000/svg" width="1.292in" height="1.292in">
    <path fill="#FFF" fill-rule="evenodd" stroke="#DDD" stroke-width="2" d="M46 1c24.853 0 45 20.147 45 45S70.853 91 46 91 1 70.853 1 46 21.147 1 46 1z"/>
    <path fill="#C0301C" fill-rule="evenodd" d="M45.994 21.867C32.738 21.867 22 32.605 22 45.861c0 13.255 10.738 23.994 23.994 23.994s23.994-10.739 23.994-23.994c0-13.256-10.738-23.994-23.994-23.994zm0 3.428c3.481 0 6.775.883 9.667 2.41L50.466 32.9a13.745 13.745 0 0 0-4.472-.75c-1.553 0-3.053.268-4.472.75l-5.195-5.195a20.672 20.672 0 0 1 9.667-2.41zM27.838 55.528a20.672 20.672 0 0 1-2.41-9.667c0-3.481.883-6.775 2.41-9.667l5.195 5.195a13.745 13.745 0 0 0-.75 4.472c0 1.553.268 3.053.75 4.472l-5.195 5.195zm18.156 10.899c-3.481 0-6.775-.883-9.667-2.41l5.195-5.195c1.419.482 2.919.75 4.472.75 1.58 0 3.053-.268 4.472-.75l5.195 5.195a20.672 20.672 0 0 1-9.667 2.41zm0-10.283c-5.677 0-10.283-4.606-10.283-10.283s4.606-10.283 10.283-10.283 10.283 4.606 10.283 10.283-4.606 10.283-10.283 10.283zm12.961-5.811c.482-1.419.75-2.919.75-4.472 0-1.553-.268-3.053-.75-4.472l5.195-5.195a20.672 20.672 0 0 1 2.41 9.667c0 3.481-.883 6.775-2.41 9.667l-5.195-5.195z"/>
</svg>
