<svg xmlns="http://www.w3.org/2000/svg" width="50.688" height="50.688">
    <path fill="none" fill-rule="evenodd" stroke="#FFF" stroke-width="2" d="M18.5.999c9.665 0 17.5 7.836 17.5 17.5C36 28.165 28.165 36 18.5 36S1 28.165 1 18.499C1 8.835 8.835.999 18.5.999z"/>
    <path fill="#FFF" fill-rule="evenodd" d="M27 13.425a6.996 6.996 0 0 1-1.888.468c.68-.374 1.198-.965 1.441-1.669-.629.348-1.34.6-2.081.732A3.402 3.402 0 0 0 22.076 12c-1.817 0-3.279 1.359-3.279 3.028 0 .234.03.468.081.694-2.721-.132-5.147-1.332-6.761-3.17a2.833 2.833 0 0 0-.447 1.529c0 1.05.579 1.978 1.462 2.522a3.513 3.513 0 0 1-1.482-.385v.038c0 1.472 1.127 2.691 2.629 2.972a3.768 3.768 0 0 1-1.482.056c.416 1.2 1.624 2.072 3.066 2.1a6.918 6.918 0 0 1-4.071 1.294c-.274 0-.528-.01-.792-.038A9.83 9.83 0 0 0 16.035 24c6.031 0 9.33-4.613 9.33-8.616 0-.131 0-.262-.01-.394A6.774 6.774 0 0 0 27 13.425z"/>
</svg>
