<svg xmlns="http://www.w3.org/2000/svg" width="37.344" height="37.344">
    <path fill="#C0301C" fill-rule="evenodd" d="M0 0h28v28H0V0z"/>
    <path fill="#FFF" fill-rule="evenodd" d="M18.097 6.003l-2.018-.004c-2.267 0-3.732 1.546-3.732 3.938v1.815h-2.03a.323.323 0 0 0-.317.327v2.63c0 .181.142.326.317.326h2.03v6.638c0 .181.141.327.317.327h2.647a.323.323 0 0 0 .318-.327v-6.638h2.372a.32.32 0 0 0 .317-.326l.001-2.63a.328.328 0 0 0-.093-.231.313.313 0 0 0-.224-.096h-2.373v-1.539c0-.739.171-1.115 1.108-1.115h1.36a.322.322 0 0 0 .317-.326V6.329a.322.322 0 0 0-.317-.326z"/>
</svg>
