<svg xmlns="http://www.w3.org/2000/svg" width="46.656" height="50.688">
    <path fill="#555" fill-rule="evenodd" d="M0-.001h35V38H0V-.001z" opacity=".2"/>
    <path fill="#DDD" fill-rule="evenodd" d="M22 13.164a.464.464 0 0 0-.137-.323l-.688-.701a.468.468 0 0 0-.316-.14.468.468 0 0 0-.316.14l-6.406 6.537A.489.489 0 0 0 14 19c0 .112.055.238.137.322l6.406 6.537a.465.465 0 0 0 .316.141c.11 0 .234-.056.316-.141l.688-.701a.49.49 0 0 0 .137-.323.488.488 0 0 0-.137-.322L16.46 19l5.403-5.513a.493.493 0 0 0 .137-.323z"/>
</svg>
