<svg xmlns="http://www.w3.org/2000/svg" width="46.656" height="50.688">
    <path fill="#C0301C" fill-rule="evenodd" d="M0-.001h35V38H0V-.001z"/>
    <path fill="#DDD" fill-rule="evenodd" d="M13 24.835c0 .127.055.239.137.323l.688.701a.465.465 0 0 0 .316.141c.11 0 .234-.056.316-.141l6.405-6.537A.485.485 0 0 0 21 19a.485.485 0 0 0-.138-.323l-6.405-6.537a.468.468 0 0 0-.316-.14.468.468 0 0 0-.316.14l-.688.701a.493.493 0 0 0-.137.323c0 .112.055.238.137.323L18.539 19l-5.402 5.513a.488.488 0 0 0-.137.322z"/>
</svg>
